<?xml version="1.0" standalone="no"?><svg xmlns="http://www.w3.org/2000/svg" viewBox="0 0 1440 320"><path fill="#0099ff" fill-opacity="1" d="M0,192L16,181.3C32,171,64,149,96,122.7C128,96,160,64,192,69.3C224,75,256,117,288,154.7C320,192,352,224,384,250.7C416,277,448,299,480,288C512,277,544,235,576,192C608,149,640,107,672,122.7C704,139,736,213,768,208C800,203,832,117,864,69.3C896,21,928,11,960,26.7C992,43,1024,85,1056,128C1088,171,1120,213,1152,213.3C1184,213,1216,171,1248,138.7C1280,107,1312,85,1344,85.3C1376,85,1408,107,1424,117.3L1440,128L1440,320L1424,320C1408,320,1376,320,1344,320C1312,320,1280,320,1248,320C1216,320,1184,320,1152,320C1120,320,1088,320,1056,320C1024,320,992,320,960,320C928,320,896,320,864,320C832,320,800,320,768,320C736,320,704,320,672,320C640,320,608,320,576,320C544,320,512,320,480,320C448,320,416,320,384,320C352,320,320,320,288,320C256,320,224,320,192,320C160,320,128,320,96,320C64,320,32,320,16,320L0,320Z"></path></svg>